<?xml version="1.0" encoding="UTF-8" standalone="no"?>
<!DOCTYPE svg PUBLIC "-//W3C//DTD SVG 1.1//EN" "http://www.w3.org/Graphics/SVG/1.1/DTD/svg11.dtd">
<svg xmlns="http://www.w3.org/2000/svg" version="1.1" viewBox="0 0 400 400">
<g stroke-width="2.00" fill="none" stroke-linecap="butt">
<path stroke="#808081" vector-effect="non-scaling-stroke" d="
  M 217.46 36.05
  A 0.50 0.49 -67.6 0 0 216.82 36.32
  C 215.39 39.68 213.99 42.64 211.58 45.58
  C 201.83 57.46 193.16 70.45 184.06 82.84
  A 0.83 0.83 0.0 0 0 183.97 83.69
  Q 189.23 95.43 192.18 100.80
  Q 221.44 154.13 248.66 208.60
  A 0.62 0.62 0.0 0 0 249.35 208.92
  Q 268.68 204.31 288.46 202.25
  A 1.40 1.40 0.0 0 0 289.70 200.72
  Q 289.69 200.58 289.31 199.72
  Q 253.32 118.78 218.81 37.19
  Q 218.51 36.46 217.46 36.05"
/>
<path stroke="#808081" vector-effect="non-scaling-stroke" d="
  M 196.71 250.59
  A 0.45 0.45 0.0 0 1 196.63 251.33
  Q 188.98 255.48 183.69 262.15
  Q 180.85 265.72 178.67 267.77
  C 175.81 270.46 172.76 275.35 168.21 274.27
  A 1.35 1.31 -50.8 0 0 167.28 274.38
  Q 161.84 277.15 158.75 279.75
  Q 131.21 302.83 103.19 325.32
  C 100.91 327.15 98.17 328.39 95.62 329.99
  A 0.42 0.42 0.0 0 0 95.86 330.76
  C 101.22 330.48 107.67 331.75 111.48 332.08
  Q 131.17 333.79 150.94 333.07
  Q 180.13 332.01 190.45 330.20
  Q 222.74 324.55 252.85 311.83
  Q 262.15 307.90 267.31 304.53
  C 284.58 293.25 295.73 273.73 308.52 258.01
  C 319.70 244.28 335.80 244.67 351.91 245.30
  Q 356.71 245.48 361.18 246.17
  A 0.71 0.71 0.0 0 0 361.76 244.93
  C 353.06 237.18 343.75 227.11 336.22 221.28
  C 327.72 214.70 315.39 207.38 304.70 206.28
  C 291.22 204.89 275.18 214.44 264.90 223.06
  C 260.88 226.43 257.15 230.99 253.42 235.00
  A 1.84 1.84 0.0 0 1 250.88 235.15
  C 196.78 189.39 146.32 144.63 85.70 93.88
  C 75.54 85.37 62.43 73.65 50.79 64.94
  Q 48.53 63.25 44.49 61.47
  A 0.33 0.32 -78.2 0 0 44.04 61.77
  Q 43.95 84.42 44.19 107.06
  C 44.23 109.98 43.62 114.04 44.59 117.79
  A 1.64 1.59 -77.8 0 0 45.09 118.59
  C 95.90 162.29 146.12 206.64 196.71 250.59"
/>
<path stroke="#808081" vector-effect="non-scaling-stroke" d="
  M 225.94 207.81
  Q 226.88 208.83 228.77 210.00
  C 231.25 211.52 232.95 209.15 231.78 206.84
  Q 229.67 202.71 223.33 191.43
  Q 208.18 164.47 193.11 137.47
  C 189.09 130.27 184.20 122.66 179.84 115.17
  C 178.72 113.24 178.65 111.29 177.29 109.55
  Q 174.95 106.56 173.20 103.73
  A 0.80 0.80 0.0 0 0 171.87 103.67
  L 153.71 127.85
  A 0.52 0.51 -47.9 0 0 153.74 128.50
  C 177.88 154.88 201.65 181.58 225.94 207.81"
/>
<path stroke="#808081" vector-effect="non-scaling-stroke" d="
  M 180.67 251.81
  Q 145.31 222.27 109.37 193.45
  C 88.81 176.97 68.95 159.49 48.96 144.04
  Q 46.89 142.45 44.03 142.29
  A 0.39 0.39 0.0 0 0 43.62 142.76
  Q 46.26 156.37 46.67 170.23
  A 1.49 1.45 24.5 0 0 47.02 171.12
  C 48.55 172.91 50.12 174.66 52.02 176.17
  C 91.82 207.67 129.79 235.04 172.38 265.10
  A 0.72 0.71 44.2 0 0 173.23 265.09
  Q 177.95 261.46 183.27 258.99
  A 2.43 2.43 0.0 0 0 184.19 255.35
  Q 183.04 253.79 180.67 251.81"
/>
<path stroke="#808081" vector-effect="non-scaling-stroke" d="
  M 152.04 261.40
  C 149.23 257.51 144.40 254.84 140.35 252.47
  Q 121.65 241.55 103.11 230.37
  C 90.70 222.88 78.00 214.22 65.40 206.20
  C 62.40 204.29 59.31 202.87 56.13 201.46
  A 0.46 0.46 0.0 0 0 55.56 202.15
  C 57.87 205.43 58.10 211.52 58.57 218.19
  Q 58.80 221.48 62.47 228.34
  A 1.70 1.70 0.0 0 0 63.15 229.02
  C 67.17 231.21 72.41 233.15 75.51 234.48
  Q 110.27 249.47 143.78 260.78
  Q 147.39 262.00 151.83 261.83
  Q 152.34 261.81 152.04 261.40"
/>
</g>
<path fill="#ffffff" d="
  M 0.00 0.00
  L 400.00 0.00
  L 400.00 400.00
  L 0.00 400.00
  L 0.00 0.00
  Z
  M 217.46 36.05
  A 0.50 0.49 -67.6 0 0 216.82 36.32
  C 215.39 39.68 213.99 42.64 211.58 45.58
  C 201.83 57.46 193.16 70.45 184.06 82.84
  A 0.83 0.83 0.0 0 0 183.97 83.69
  Q 189.23 95.43 192.18 100.80
  Q 221.44 154.13 248.66 208.60
  A 0.62 0.62 0.0 0 0 249.35 208.92
  Q 268.68 204.31 288.46 202.25
  A 1.40 1.40 0.0 0 0 289.70 200.72
  Q 289.69 200.58 289.31 199.72
  Q 253.32 118.78 218.81 37.19
  Q 218.51 36.46 217.46 36.05
  Z
  M 196.71 250.59
  A 0.45 0.45 0.0 0 1 196.63 251.33
  Q 188.98 255.48 183.69 262.15
  Q 180.85 265.72 178.67 267.77
  C 175.81 270.46 172.76 275.35 168.21 274.27
  A 1.35 1.31 -50.8 0 0 167.28 274.38
  Q 161.84 277.15 158.75 279.75
  Q 131.21 302.83 103.19 325.32
  C 100.91 327.15 98.17 328.39 95.62 329.99
  A 0.42 0.42 0.0 0 0 95.86 330.76
  C 101.22 330.48 107.67 331.75 111.48 332.08
  Q 131.17 333.79 150.94 333.07
  Q 180.13 332.01 190.45 330.20
  Q 222.74 324.55 252.85 311.83
  Q 262.15 307.90 267.31 304.53
  C 284.58 293.25 295.73 273.73 308.52 258.01
  C 319.70 244.28 335.80 244.67 351.91 245.30
  Q 356.71 245.48 361.18 246.17
  A 0.71 0.71 0.0 0 0 361.76 244.93
  C 353.06 237.18 343.75 227.11 336.22 221.28
  C 327.72 214.70 315.39 207.38 304.70 206.28
  C 291.22 204.89 275.18 214.44 264.90 223.06
  C 260.88 226.43 257.15 230.99 253.42 235.00
  A 1.84 1.84 0.0 0 1 250.88 235.15
  C 196.78 189.39 146.32 144.63 85.70 93.88
  C 75.54 85.37 62.43 73.65 50.79 64.94
  Q 48.53 63.25 44.49 61.47
  A 0.33 0.32 -78.2 0 0 44.04 61.77
  Q 43.95 84.42 44.19 107.06
  C 44.23 109.98 43.62 114.04 44.59 117.79
  A 1.64 1.59 -77.8 0 0 45.09 118.59
  C 95.90 162.29 146.12 206.64 196.71 250.59
  Z
  M 225.94 207.81
  Q 226.88 208.83 228.77 210.00
  C 231.25 211.52 232.95 209.15 231.78 206.84
  Q 229.67 202.71 223.33 191.43
  Q 208.18 164.47 193.11 137.47
  C 189.09 130.27 184.20 122.66 179.84 115.17
  C 178.72 113.24 178.65 111.29 177.29 109.55
  Q 174.95 106.56 173.20 103.73
  A 0.80 0.80 0.0 0 0 171.87 103.67
  L 153.71 127.85
  A 0.52 0.51 -47.9 0 0 153.74 128.50
  C 177.88 154.88 201.65 181.58 225.94 207.81
  Z
  M 180.67 251.81
  Q 145.31 222.27 109.37 193.45
  C 88.81 176.97 68.95 159.49 48.96 144.04
  Q 46.89 142.45 44.03 142.29
  A 0.39 0.39 0.0 0 0 43.62 142.76
  Q 46.26 156.37 46.67 170.23
  A 1.49 1.45 24.5 0 0 47.02 171.12
  C 48.55 172.91 50.12 174.66 52.02 176.17
  C 91.82 207.67 129.79 235.04 172.38 265.10
  A 0.72 0.71 44.2 0 0 173.23 265.09
  Q 177.95 261.46 183.27 258.99
  A 2.43 2.43 0.0 0 0 184.19 255.35
  Q 183.04 253.79 180.67 251.81
  Z
  M 152.04 261.40
  C 149.23 257.51 144.40 254.84 140.35 252.47
  Q 121.65 241.55 103.11 230.37
  C 90.70 222.88 78.00 214.22 65.40 206.20
  C 62.40 204.29 59.31 202.87 56.13 201.46
  A 0.46 0.46 0.0 0 0 55.56 202.15
  C 57.87 205.43 58.10 211.52 58.57 218.19
  Q 58.80 221.48 62.47 228.34
  A 1.70 1.70 0.0 0 0 63.15 229.02
  C 67.17 231.21 72.41 233.15 75.51 234.48
  Q 110.27 249.47 143.78 260.78
  Q 147.39 262.00 151.83 261.83
  Q 152.34 261.81 152.04 261.40
  Z"
/>
<path fill="#010103" d="
  M 217.46 36.05
  Q 218.51 36.46 218.81 37.19
  Q 253.32 118.78 289.31 199.72
  Q 289.69 200.58 289.70 200.72
  A 1.40 1.40 0.0 0 1 288.46 202.25
  Q 268.68 204.31 249.35 208.92
  A 0.62 0.62 0.0 0 1 248.66 208.60
  Q 221.44 154.13 192.18 100.80
  Q 189.23 95.43 183.97 83.69
  A 0.83 0.83 0.0 0 1 184.06 82.84
  C 193.16 70.45 201.83 57.46 211.58 45.58
  C 213.99 42.64 215.39 39.68 216.82 36.32
  A 0.50 0.49 -67.6 0 1 217.46 36.05
  Z"
/>
<path fill="#010103" d="
  M 196.71 250.59
  C 146.12 206.64 95.90 162.29 45.09 118.59
  A 1.64 1.59 -77.8 0 1 44.59 117.79
  C 43.62 114.04 44.23 109.98 44.19 107.06
  Q 43.95 84.42 44.04 61.77
  A 0.33 0.32 -78.2 0 1 44.49 61.47
  Q 48.53 63.25 50.79 64.94
  C 62.43 73.65 75.54 85.37 85.70 93.88
  C 146.32 144.63 196.78 189.39 250.88 235.15
  A 1.84 1.84 0.0 0 0 253.42 235.00
  C 257.15 230.99 260.88 226.43 264.90 223.06
  C 275.18 214.44 291.22 204.89 304.70 206.28
  C 315.39 207.38 327.72 214.70 336.22 221.28
  C 343.75 227.11 353.06 237.18 361.76 244.93
  A 0.71 0.71 0.0 0 1 361.18 246.17
  Q 356.71 245.48 351.91 245.30
  C 335.80 244.67 319.70 244.28 308.52 258.01
  C 295.73 273.73 284.58 293.25 267.31 304.53
  Q 262.15 307.90 252.85 311.83
  Q 222.74 324.55 190.45 330.20
  Q 180.13 332.01 150.94 333.07
  Q 131.17 333.79 111.48 332.08
  C 107.67 331.75 101.22 330.48 95.86 330.76
  A 0.42 0.42 0.0 0 1 95.62 329.99
  C 98.17 328.39 100.91 327.15 103.19 325.32
  Q 131.21 302.83 158.75 279.75
  Q 161.84 277.15 167.28 274.38
  A 1.35 1.31 -50.8 0 1 168.21 274.27
  C 172.76 275.35 175.81 270.46 178.67 267.77
  Q 180.85 265.72 183.69 262.15
  Q 188.98 255.48 196.63 251.33
  A 0.45 0.45 0.0 0 0 196.71 250.59
  Z"
/>
<path fill="#010103" d="
  M 225.94 207.81
  C 201.65 181.58 177.88 154.88 153.74 128.50
  A 0.52 0.51 -47.9 0 1 153.71 127.85
  L 171.87 103.67
  A 0.80 0.80 0.0 0 1 173.20 103.73
  Q 174.95 106.56 177.29 109.55
  C 178.65 111.29 178.72 113.24 179.84 115.17
  C 184.20 122.66 189.09 130.27 193.11 137.47
  Q 208.18 164.47 223.33 191.43
  Q 229.67 202.71 231.78 206.84
  C 232.95 209.15 231.25 211.52 228.77 210.00
  Q 226.88 208.83 225.94 207.81
  Z"
/>
<path fill="#010103" d="
  M 180.67 251.81
  Q 183.04 253.79 184.19 255.35
  A 2.43 2.43 0.0 0 1 183.27 258.99
  Q 177.95 261.46 173.23 265.09
  A 0.72 0.71 44.2 0 1 172.38 265.10
  C 129.79 235.04 91.82 207.67 52.02 176.17
  C 50.12 174.66 48.55 172.91 47.02 171.12
  A 1.49 1.45 24.5 0 1 46.67 170.23
  Q 46.26 156.37 43.62 142.76
  A 0.39 0.39 0.0 0 1 44.03 142.29
  Q 46.89 142.45 48.96 144.04
  C 68.95 159.49 88.81 176.97 109.37 193.45
  Q 145.31 222.27 180.67 251.81
  Z"
/>
<path fill="#010103" d="
  M 140.35 252.47
  C 144.40 254.84 149.23 257.51 152.04 261.40
  Q 152.34 261.81 151.83 261.83
  Q 147.39 262.00 143.78 260.78
  Q 110.27 249.47 75.51 234.48
  C 72.41 233.15 67.17 231.21 63.15 229.02
  A 1.70 1.70 0.0 0 1 62.47 228.34
  Q 58.80 221.48 58.57 218.19
  C 58.10 211.52 57.87 205.43 55.56 202.15
  A 0.46 0.46 0.0 0 1 56.13 201.46
  C 59.31 202.87 62.40 204.29 65.40 206.20
  C 78.00 214.22 90.70 222.88 103.11 230.37
  Q 121.65 241.55 140.35 252.47
  Z"
/>
</svg>
